<svg width="324" height="57" viewBox="0 0 324 57" fill="none" xmlns="http://www.w3.org/2000/svg">
<path d="M2.052 14.252H8.712V19.436H2.052V14.252ZM2.052 22.64H8.712V41H2.052V22.64Z" fill="black"/>
<path d="M23.2138 32.324C23.2138 31.052 23.2018 30.212 23.1778 29.804C23.1298 29.132 23.0698 28.688 22.9978 28.472C22.9018 28.232 22.7338 28.088 22.4938 28.04C22.2538 27.968 21.8698 27.932 21.3418 27.932H20.9818V23.432C21.9178 22.736 23.1418 22.388 24.6538 22.388C26.8138 22.388 28.2658 23.048 29.0098 24.368C29.3458 24.944 29.5738 25.652 29.6938 26.492C29.8138 27.308 29.8738 28.316 29.8738 29.516V41H23.2138V32.324ZM12.8098 22.64H19.4698V41H12.8098V22.64Z" fill="black"/>
<path d="M47.5819 27.644C47.1259 27.62 46.5019 27.56 45.7099 27.464C44.2219 27.32 43.0219 27.248 42.1099 27.248H40.9219V22.352C42.6259 22.352 44.2459 22.472 45.7819 22.712L47.5819 23.036V27.644ZM42.3619 35.42C42.3619 35.06 42.3019 34.832 42.1819 34.736C42.0619 34.64 41.8099 34.568 41.4259 34.52L37.5379 33.98C36.5779 33.836 35.7979 33.608 35.1979 33.296C34.6219 32.984 34.1899 32.564 33.9019 32.036C33.6139 31.58 33.4219 31.028 33.3259 30.38C33.2299 29.732 33.1819 28.928 33.1819 27.968C33.1819 26 33.7699 24.56 34.9459 23.648C35.9299 22.928 37.4179 22.508 39.4099 22.388V28.04C39.4099 28.4 39.4579 28.64 39.5539 28.76C39.6499 28.856 39.9499 28.94 40.4539 29.012L44.7739 29.588C45.3979 29.66 45.9379 29.792 46.3939 29.984C46.8499 30.152 47.2339 30.416 47.5459 30.776C48.2419 31.544 48.5899 33.02 48.5899 35.204C48.5899 37.508 48.0019 39.116 46.8259 40.028C45.7939 40.796 44.3059 41.204 42.3619 41.252V35.42ZM40.8499 41.288C38.9299 41.264 37.2499 41.144 35.8099 40.928L33.7579 40.604V35.996C34.7179 36.092 36.0139 36.188 37.6459 36.284C38.5579 36.332 39.2059 36.356 39.5899 36.356H40.8499V41.288Z" fill="black"/>
<path d="M50.3238 22.64H53.7078V17.312H60.3678V22.64H64.3998V27.716H50.3238V22.64ZM53.7078 29.156H60.3678V41H53.7078V29.156Z" fill="black"/>
<path d="M75.2631 23.684C75.7671 23.204 76.3551 22.868 77.0271 22.676C77.7231 22.46 78.5751 22.352 79.5831 22.352V28.364C78.5031 28.364 77.6151 28.436 76.9191 28.58C76.2471 28.724 75.6951 28.976 75.2631 29.336V23.684ZM67.0911 22.64H73.7511V41H67.0911V22.64Z" fill="black"/>
<path d="M87.532 41.252C85.372 41.252 83.92 40.592 83.176 39.272C82.84 38.696 82.612 38 82.492 37.184C82.372 36.344 82.312 35.324 82.312 34.124V22.64H88.972V31.316C88.972 32.588 88.984 33.428 89.008 33.836C89.056 34.436 89.128 34.868 89.224 35.132C89.32 35.396 89.476 35.564 89.692 35.636C89.908 35.684 90.292 35.708 90.844 35.708H91.204V40.208C90.268 40.904 89.044 41.252 87.532 41.252ZM92.716 22.64H99.376V41H92.716V22.64Z" fill="black"/>
<path d="M113.522 29.804C113.522 29.228 113.462 28.784 113.342 28.472C113.246 28.232 113.09 28.088 112.874 28.04C112.682 27.968 112.334 27.932 111.83 27.932H111.65V23.432C112.586 22.736 113.882 22.388 115.538 22.388C116.282 22.388 116.93 22.484 117.482 22.676C118.034 22.844 118.502 23.156 118.886 23.612C119.75 24.668 120.182 26.636 120.182 29.516V41H113.522V29.804ZM123.566 29.804C123.566 29.228 123.506 28.784 123.386 28.472C123.29 28.232 123.134 28.088 122.918 28.04C122.726 27.968 122.378 27.932 121.874 27.932H121.694C121.646 27.308 121.574 26.66 121.478 25.988C121.286 25.028 121.082 24.332 120.866 23.9C121.874 22.892 123.314 22.388 125.186 22.388C127.226 22.388 128.618 23.048 129.362 24.368C129.698 24.944 129.926 25.652 130.046 26.492C130.166 27.308 130.226 28.316 130.226 29.516V41H123.566V29.804ZM103.478 22.64H110.138V41H103.478V22.64Z" fill="black"/>
<path d="M141.941 30.02H144.461C144.461 28.676 144.329 27.812 144.065 27.428C143.921 27.212 143.729 27.08 143.489 27.032C143.249 26.96 142.901 26.924 142.445 26.924H141.941V22.352H142.445C144.509 22.352 146.093 22.52 147.197 22.856C148.325 23.192 149.153 23.744 149.681 24.512C150.161 25.184 150.449 26.048 150.545 27.104C150.665 28.16 150.725 29.744 150.725 31.856V33.296H141.941V30.02ZM143.165 41.288C140.957 41.288 139.217 41.108 137.945 40.748C136.697 40.364 135.761 39.764 135.137 38.948C134.585 38.228 134.225 37.34 134.057 36.284C133.889 35.204 133.805 33.728 133.805 31.856C133.805 30.128 133.865 28.76 133.985 27.752C134.105 26.72 134.357 25.844 134.741 25.124C135.173 24.332 135.833 23.72 136.721 23.288C137.633 22.832 138.869 22.544 140.429 22.424V33.296C140.429 34.112 140.465 34.7 140.537 35.06C140.609 35.396 140.777 35.648 141.041 35.816C141.329 36.008 141.773 36.116 142.373 36.14C143.141 36.188 143.957 36.212 144.821 36.212C146.357 36.212 147.473 36.176 148.169 36.104L150.005 35.96V40.604C149.045 40.892 147.725 41.084 146.045 41.18C145.229 41.252 144.269 41.288 143.165 41.288Z" fill="black"/>
<path d="M164.788 32.324C164.788 31.052 164.776 30.212 164.752 29.804C164.704 29.132 164.644 28.688 164.572 28.472C164.476 28.232 164.308 28.088 164.068 28.04C163.828 27.968 163.444 27.932 162.916 27.932H162.556V23.432C163.492 22.736 164.716 22.388 166.228 22.388C168.388 22.388 169.84 23.048 170.584 24.368C170.92 24.944 171.148 25.652 171.268 26.492C171.388 27.308 171.448 28.316 171.448 29.516V41H164.788V32.324ZM154.384 22.64H161.044V41H154.384V22.64Z" fill="black"/>
<path d="M174.144 22.64H177.528V17.312H184.188V22.64H188.22V27.716H174.144V22.64ZM177.528 29.156H184.188V41H177.528V29.156Z" fill="black"/>
<path d="M204.519 27.644C204.063 27.62 203.439 27.56 202.647 27.464C201.159 27.32 199.959 27.248 199.047 27.248H197.859V22.352C199.563 22.352 201.183 22.472 202.719 22.712L204.519 23.036V27.644ZM199.299 35.42C199.299 35.06 199.239 34.832 199.119 34.736C198.999 34.64 198.747 34.568 198.363 34.52L194.475 33.98C193.515 33.836 192.735 33.608 192.135 33.296C191.559 32.984 191.127 32.564 190.839 32.036C190.551 31.58 190.359 31.028 190.263 30.38C190.167 29.732 190.119 28.928 190.119 27.968C190.119 26 190.707 24.56 191.883 23.648C192.867 22.928 194.355 22.508 196.347 22.388V28.04C196.347 28.4 196.395 28.64 196.491 28.76C196.587 28.856 196.887 28.94 197.391 29.012L201.711 29.588C202.335 29.66 202.875 29.792 203.331 29.984C203.787 30.152 204.171 30.416 204.483 30.776C205.179 31.544 205.527 33.02 205.527 35.204C205.527 37.508 204.939 39.116 203.763 40.028C202.731 40.796 201.243 41.204 199.299 41.252V35.42ZM197.787 41.288C195.867 41.264 194.187 41.144 192.747 40.928L190.695 40.604V35.996C191.655 36.092 192.951 36.188 194.583 36.284C195.495 36.332 196.143 36.356 196.527 36.356H197.787V41.288Z" fill="black"/>
<path d="M206.789 43.052H221.189V47.84H206.789V43.052Z" fill="black"/>
<path d="M231.427 23.684C231.931 23.204 232.519 22.868 233.191 22.676C233.887 22.46 234.739 22.352 235.747 22.352V28.364C234.667 28.364 233.779 28.436 233.083 28.58C232.411 28.724 231.859 28.976 231.427 29.336V23.684ZM223.255 22.64H229.915V41H223.255V22.64Z" fill="black"/>
<path d="M245.968 30.02H248.488C248.488 28.676 248.356 27.812 248.092 27.428C247.948 27.212 247.756 27.08 247.516 27.032C247.276 26.96 246.928 26.924 246.472 26.924H245.968V22.352H246.472C248.536 22.352 250.12 22.52 251.224 22.856C252.352 23.192 253.18 23.744 253.708 24.512C254.188 25.184 254.476 26.048 254.572 27.104C254.692 28.16 254.752 29.744 254.752 31.856V33.296H245.968V30.02ZM247.192 41.288C244.984 41.288 243.244 41.108 241.972 40.748C240.724 40.364 239.788 39.764 239.164 38.948C238.612 38.228 238.252 37.34 238.084 36.284C237.916 35.204 237.832 33.728 237.832 31.856C237.832 30.128 237.892 28.76 238.012 27.752C238.132 26.72 238.384 25.844 238.768 25.124C239.2 24.332 239.86 23.72 240.748 23.288C241.66 22.832 242.896 22.544 244.456 22.424V33.296C244.456 34.112 244.492 34.7 244.564 35.06C244.636 35.396 244.804 35.648 245.068 35.816C245.356 36.008 245.8 36.116 246.4 36.14C247.168 36.188 247.984 36.212 248.848 36.212C250.384 36.212 251.5 36.176 252.196 36.104L254.032 35.96V40.604C253.072 40.892 251.752 41.084 250.072 41.18C249.256 41.252 248.296 41.288 247.192 41.288Z" fill="black"/>
<path d="M268.815 32.324C268.815 31.052 268.803 30.212 268.779 29.804C268.731 29.132 268.671 28.688 268.599 28.472C268.503 28.232 268.335 28.088 268.095 28.04C267.855 27.968 267.471 27.932 266.943 27.932H266.583V23.432C267.519 22.736 268.743 22.388 270.255 22.388C272.415 22.388 273.867 23.048 274.611 24.368C274.947 24.944 275.175 25.652 275.295 26.492C275.415 27.308 275.475 28.316 275.475 29.516V41H268.815V32.324ZM258.411 22.64H265.071V41H258.411V22.64Z" fill="black"/>
<path d="M278.171 22.64H281.555V17.312H288.215V22.64H292.247V27.716H278.171V22.64ZM281.555 29.156H288.215V41H281.555V29.156Z" fill="black"/>
<path d="M303.983 29.624C303.983 29 303.959 28.556 303.911 28.292C303.863 28.028 303.719 27.836 303.479 27.716C303.263 27.596 302.855 27.512 302.255 27.464C301.895 27.44 301.115 27.428 299.915 27.428C298.763 27.428 297.695 27.476 296.711 27.572L294.803 27.68V23C297.059 22.568 299.495 22.352 302.111 22.352C304.127 22.352 305.699 22.496 306.827 22.784C307.979 23.072 308.843 23.528 309.419 24.152C309.923 24.728 310.247 25.46 310.391 26.348C310.559 27.236 310.643 28.472 310.643 30.056V41H303.983V29.624ZM298.655 41.252C296.999 41.252 295.775 40.796 294.983 39.884C294.191 38.948 293.795 37.544 293.795 35.672C293.795 34.52 293.879 33.596 294.047 32.9C294.215 32.18 294.503 31.616 294.911 31.208C295.319 30.776 295.883 30.476 296.603 30.308C297.323 30.116 298.271 30.02 299.447 30.02L302.471 30.092V33.296H302.111C301.559 33.296 301.199 33.308 301.031 33.332C300.551 33.356 300.299 33.584 300.275 34.016C300.251 34.16 300.239 34.46 300.239 34.916C300.239 35.276 300.251 35.552 300.275 35.744C300.323 35.936 300.395 36.092 300.491 36.212C300.611 36.38 300.791 36.476 301.031 36.5C301.367 36.548 301.727 36.572 302.111 36.572H302.471V40.244C301.943 40.652 301.379 40.916 300.779 41.036C300.203 41.18 299.495 41.252 298.655 41.252Z" fill="black"/>
<path d="M314.661 14.252H321.321V41H314.661V14.252Z" fill="black"/>
</svg>
